<mxfile host="65bd71144e">
    <diagram id="YnOl_m18Om6cisxJbe4u" name="Page-1">
        <mxGraphModel dx="1083" dy="480" grid="1" gridSize="10" guides="1" tooltips="1" connect="1" arrows="1" fold="1" page="1" pageScale="1" pageWidth="850" pageHeight="1100" background="#ffffff" math="0" shadow="0">
            <root>
                <mxCell id="0"/>
                <mxCell id="1" parent="0"/>
                <mxCell id="638" value="" style="rounded=0;whiteSpace=wrap;html=1;dashed=1;dashPattern=1 1;" parent="1" vertex="1">
                    <mxGeometry x="40" y="75.24" width="220" height="264.76" as="geometry"/>
                </mxCell>
                <mxCell id="639" value="" style="ellipse;whiteSpace=wrap;html=1;dashed=1;dashPattern=1 2;" parent="1" vertex="1">
                    <mxGeometry x="250" y="110" width="240" height="200" as="geometry"/>
                </mxCell>
                <mxCell id="36" value="&lt;div&gt;&lt;span style=&quot;font-size: 10px;&quot;&gt;&lt;b&gt;&lt;br&gt;&lt;/b&gt;&lt;/span&gt;&lt;/div&gt;&lt;span style=&quot;font-size: 10px;&quot;&gt;&lt;b&gt;LOAD PORT&lt;/b&gt;&lt;br&gt;&lt;/span&gt;" style="shape=cube;whiteSpace=wrap;html=1;boundedLbl=1;backgroundOutline=1;darkOpacity=0.05;darkOpacity2=0.1;fontSize=9;verticalAlign=top;align=left;size=0;spacingLeft=4;fillColor=#FFFFFF;fontColor=#000000;strokeColor=#000000;" parent="1" vertex="1">
                    <mxGeometry x="53.99999999999999" y="167.87" width="80" height="80.26" as="geometry"/>
                </mxCell>
                <mxCell id="111" value="Load Port" style="rounded=0;whiteSpace=wrap;html=1;fillColor=#008a00;fontColor=#ffffff;strokeColor=#005700;" parent="1" vertex="1">
                    <mxGeometry x="58.99999999999999" y="209.82" width="65" height="28.75" as="geometry"/>
                </mxCell>
                <mxCell id="448" value="&lt;b&gt;VTM Robot&lt;/b&gt;" style="shape=cube;whiteSpace=wrap;html=1;boundedLbl=1;backgroundOutline=1;darkOpacity=0.05;darkOpacity2=0.1;fontSize=9;verticalAlign=top;align=left;size=0;spacingLeft=4;fillColor=#f9f7ed;strokeColor=#36393d;dashed=1;fillStyle=solid;" parent="1" vertex="1">
                    <mxGeometry x="333" y="173" width="80" height="70" as="geometry"/>
                </mxCell>
                <mxCell id="449" value="" style="group;strokeColor=none;fontColor=#000000;" parent="1" vertex="1" connectable="0">
                    <mxGeometry x="348.8" y="203.88" width="57" height="30" as="geometry"/>
                </mxCell>
                <mxCell id="450" value="" style="group;strokeColor=none;fontColor=#000000;" parent="449" vertex="1" connectable="0">
                    <mxGeometry width="52" height="30" as="geometry"/>
                </mxCell>
                <mxCell id="451" value="" style="endArrow=none;html=1;strokeColor=#000000;fontColor=#000000;" parent="450" edge="1">
                    <mxGeometry width="50" height="50" relative="1" as="geometry">
                        <mxPoint x="22" y="15" as="sourcePoint"/>
                        <mxPoint x="41" y="30" as="targetPoint"/>
                    </mxGeometry>
                </mxCell>
                <mxCell id="452" value="" style="endArrow=none;html=1;strokeColor=#000000;fontColor=#000000;" parent="450" edge="1">
                    <mxGeometry width="50" height="50" relative="1" as="geometry">
                        <mxPoint x="51" y="23" as="sourcePoint"/>
                        <mxPoint x="40" y="30" as="targetPoint"/>
                        <Array as="points"/>
                    </mxGeometry>
                </mxCell>
                <mxCell id="453" value="" style="endArrow=none;html=1;strokeColor=#000000;fontColor=#000000;" parent="450" edge="1">
                    <mxGeometry width="50" height="50" relative="1" as="geometry">
                        <mxPoint x="22" y="15" as="sourcePoint"/>
                        <mxPoint x="42" y="2" as="targetPoint"/>
                        <Array as="points">
                            <mxPoint x="42" y="2"/>
                        </Array>
                    </mxGeometry>
                </mxCell>
                <mxCell id="454" value="" style="endArrow=none;html=1;strokeColor=#000000;fontColor=#000000;" parent="450" edge="1">
                    <mxGeometry width="50" height="50" relative="1" as="geometry">
                        <mxPoint x="52" y="10" as="sourcePoint"/>
                        <mxPoint x="41" y="2" as="targetPoint"/>
                    </mxGeometry>
                </mxCell>
                <mxCell id="455" value="" style="endArrow=none;html=1;strokeColor=#000000;fontColor=#000000;" parent="450" edge="1">
                    <mxGeometry width="50" height="50" relative="1" as="geometry">
                        <mxPoint x="30" y="15.370000000000005" as="sourcePoint"/>
                        <mxPoint x="11" as="targetPoint"/>
                    </mxGeometry>
                </mxCell>
                <mxCell id="456" value="" style="endArrow=none;html=1;strokeColor=#000000;fontColor=#000000;" parent="450" edge="1">
                    <mxGeometry width="50" height="50" relative="1" as="geometry">
                        <mxPoint x="1" y="7" as="sourcePoint"/>
                        <mxPoint x="12" as="targetPoint"/>
                        <Array as="points"/>
                    </mxGeometry>
                </mxCell>
                <mxCell id="457" value="" style="endArrow=none;html=1;strokeColor=#000000;fontColor=#000000;" parent="450" edge="1">
                    <mxGeometry width="50" height="50" relative="1" as="geometry">
                        <mxPoint x="30" y="15.370000000000005" as="sourcePoint"/>
                        <mxPoint x="10" y="28" as="targetPoint"/>
                        <Array as="points">
                            <mxPoint x="10" y="28"/>
                        </Array>
                    </mxGeometry>
                </mxCell>
                <mxCell id="458" value="" style="endArrow=none;html=1;strokeColor=#000000;fontColor=#000000;" parent="450" edge="1">
                    <mxGeometry width="50" height="50" relative="1" as="geometry">
                        <mxPoint y="20" as="sourcePoint"/>
                        <mxPoint x="11" y="28" as="targetPoint"/>
                    </mxGeometry>
                </mxCell>
                <mxCell id="459" value="" style="ellipse;whiteSpace=wrap;html=1;rotation=-180;fillColor=#FFFFFF;strokeColor=#000000;fontColor=#000000;" parent="450" vertex="1">
                    <mxGeometry x="21" y="10" width="10" height="10" as="geometry"/>
                </mxCell>
                <mxCell id="460" value="&lt;font style=&quot;font-size: 8px;&quot;&gt;arm1&lt;/font&gt;" style="text;html=1;strokeColor=none;fillColor=none;align=center;verticalAlign=middle;whiteSpace=wrap;rounded=0;dashed=1;fontColor=#000000;" parent="450" vertex="1">
                    <mxGeometry x="-5" y="-1" width="21" height="30" as="geometry"/>
                </mxCell>
                <mxCell id="461" value="&lt;font style=&quot;font-size: 8px;&quot;&gt;arm2&lt;/font&gt;" style="text;html=1;strokeColor=none;fillColor=none;align=center;verticalAlign=middle;whiteSpace=wrap;rounded=0;dashed=1;fontColor=#000000;" parent="449" vertex="1">
                    <mxGeometry x="36" width="21" height="30" as="geometry"/>
                </mxCell>
                <mxCell id="527" value="Chamber1.1" style="rounded=0;whiteSpace=wrap;html=1;fontSize=9;fillColor=#f5f5f5;strokeColor=#666666;fontColor=#333333;" parent="1" vertex="1">
                    <mxGeometry x="330" y="75.24" width="70" height="60" as="geometry"/>
                </mxCell>
                <mxCell id="531" value="Chamber2.1" style="rounded=0;whiteSpace=wrap;html=1;fontSize=9;fillColor=#f5f5f5;strokeColor=#666666;fontColor=#333333;" parent="1" vertex="1">
                    <mxGeometry x="450.39" y="221.77999999999997" width="69.61" height="59.49" as="geometry"/>
                </mxCell>
                <mxCell id="633" value="Airlock&lt;div&gt;Entry&lt;/div&gt;" style="rounded=0;whiteSpace=wrap;html=1;fontSize=9;fillColor=#dae8fc;strokeColor=#6c8ebf;" parent="1" vertex="1">
                    <mxGeometry x="236" y="140" width="59.39" height="48.32" as="geometry"/>
                </mxCell>
                <mxCell id="634" value="Airlock&lt;div&gt;Exit&lt;/div&gt;" style="rounded=0;whiteSpace=wrap;html=1;fontSize=9;fillColor=#dae8fc;strokeColor=#6c8ebf;" parent="1" vertex="1">
                    <mxGeometry x="236" y="221.78" width="59.39" height="48.32" as="geometry"/>
                </mxCell>
                <mxCell id="635" value="Chamber1.2" style="rounded=0;whiteSpace=wrap;html=1;fontSize=9;fillColor=#f5f5f5;strokeColor=#666666;fontColor=#333333;" parent="1" vertex="1">
                    <mxGeometry x="450" y="125.32999999999998" width="70" height="60" as="geometry"/>
                </mxCell>
                <mxCell id="636" value="Chamber2.2" style="rounded=0;whiteSpace=wrap;html=1;fontSize=9;fillColor=#f5f5f5;strokeColor=#666666;fontColor=#333333;" parent="1" vertex="1">
                    <mxGeometry x="341.69" y="281.27" width="69.61" height="59.49" as="geometry"/>
                </mxCell>
                <mxCell id="385" value="&lt;b&gt;ATM Robot&lt;/b&gt;" style="shape=cube;whiteSpace=wrap;html=1;boundedLbl=1;backgroundOutline=1;darkOpacity=0.05;darkOpacity2=0.1;fontSize=9;verticalAlign=top;align=left;size=0;spacingLeft=4;fillColor=#f9f7ed;strokeColor=#36393d;dashed=1;fillStyle=solid;movable=1;resizable=1;rotatable=1;deletable=1;editable=1;locked=0;connectable=1;" parent="1" vertex="1">
                    <mxGeometry x="147" y="172" width="72" height="71" as="geometry"/>
                </mxCell>
                <mxCell id="392" value="" style="endArrow=none;html=1;strokeColor=#000000;fontColor=#000000;movable=1;resizable=1;rotatable=1;deletable=1;editable=1;locked=0;connectable=1;" parent="1" edge="1">
                    <mxGeometry width="50" height="50" relative="1" as="geometry">
                        <mxPoint x="198.92888888888893" y="220.25" as="sourcePoint"/>
                        <mxPoint x="179.50666666666672" y="204.88" as="targetPoint"/>
                    </mxGeometry>
                </mxCell>
                <mxCell id="393" value="" style="endArrow=none;html=1;strokeColor=#000000;fontColor=#000000;movable=1;resizable=1;rotatable=1;deletable=1;editable=1;locked=0;connectable=1;" parent="1" edge="1">
                    <mxGeometry width="50" height="50" relative="1" as="geometry">
                        <mxPoint x="169.2844444444445" y="211.88" as="sourcePoint"/>
                        <mxPoint x="180.52888888888896" y="204.88" as="targetPoint"/>
                        <Array as="points"/>
                    </mxGeometry>
                </mxCell>
                <mxCell id="394" value="" style="endArrow=none;html=1;strokeColor=#000000;fontColor=#000000;movable=1;resizable=1;rotatable=1;deletable=1;editable=1;locked=0;connectable=1;" parent="1" edge="1">
                    <mxGeometry width="50" height="50" relative="1" as="geometry">
                        <mxPoint x="198.92888888888893" y="220.25" as="sourcePoint"/>
                        <mxPoint x="178.48444444444448" y="232.88" as="targetPoint"/>
                        <Array as="points">
                            <mxPoint x="178.48444444444448" y="232.88"/>
                        </Array>
                    </mxGeometry>
                </mxCell>
                <mxCell id="395" value="" style="endArrow=none;html=1;strokeColor=#000000;fontColor=#000000;movable=1;resizable=1;rotatable=1;deletable=1;editable=1;locked=0;connectable=1;" parent="1" edge="1">
                    <mxGeometry width="50" height="50" relative="1" as="geometry">
                        <mxPoint x="168.26222222222225" y="224.88" as="sourcePoint"/>
                        <mxPoint x="179.50666666666672" y="232.88" as="targetPoint"/>
                    </mxGeometry>
                </mxCell>
                <mxCell id="396" value="" style="ellipse;whiteSpace=wrap;html=1;rotation=-180;fillColor=#FFFFFF;strokeColor=#000000;fontColor=#000000;movable=1;resizable=1;rotatable=1;deletable=1;editable=1;locked=0;connectable=1;" parent="1" vertex="1">
                    <mxGeometry x="189.72888888888895" y="214.88" width="10.222222222222223" height="10" as="geometry"/>
                </mxCell>
                <mxCell id="397" value="&lt;font style=&quot;font-size: 8px;&quot;&gt;arm1&lt;/font&gt;" style="text;html=1;strokeColor=none;fillColor=none;align=center;verticalAlign=middle;whiteSpace=wrap;rounded=0;dashed=1;fontColor=#000000;movable=1;resizable=1;rotatable=1;deletable=1;editable=1;locked=0;connectable=1;" parent="1" vertex="1">
                    <mxGeometry x="163.15111111111116" y="203.88" width="21.46666666666667" height="30" as="geometry"/>
                </mxCell>
                <mxCell id="640" value="Atmosphere" style="text;html=1;align=center;verticalAlign=middle;whiteSpace=wrap;rounded=0;" parent="1" vertex="1">
                    <mxGeometry x="190" y="310" width="60" height="30" as="geometry"/>
                </mxCell>
                <mxCell id="641" value="Vacuum" style="text;html=1;align=center;verticalAlign=middle;whiteSpace=wrap;rounded=0;" parent="1" vertex="1">
                    <mxGeometry x="270" y="310.76" width="60" height="30" as="geometry"/>
                </mxCell>
                <mxCell id="642" style="edgeStyle=none;html=1;entryX=0.292;entryY=0.85;entryDx=0;entryDy=0;entryPerimeter=0;" parent="1" source="641" target="639" edge="1">
                    <mxGeometry relative="1" as="geometry"/>
                </mxCell>
            </root>
        </mxGraphModel>
    </diagram>
</mxfile>